<svg width="97" height="36" viewBox="0 0 97 36" fill="none" xmlns="http://www.w3.org/2000/svg">
<path d="M0.302557 35L6.09801 0.0909081H15.5071L13.3253 13.3864H13.4616C13.9389 12.5 14.5696 11.6875 15.3537 10.9489C16.1378 10.1989 17.0582 9.60227 18.1151 9.15909C19.1719 8.70455 20.348 8.47727 21.6435 8.47727C23.3707 8.47727 24.9332 8.9375 26.331 9.85795C27.7401 10.7784 28.7685 12.2273 29.4162 14.2045C30.0753 16.1818 30.1435 18.75 29.6207 21.9091C29.1207 24.9318 28.2344 27.4375 26.9616 29.4261C25.6889 31.4148 24.1889 32.8977 22.4616 33.875C20.7344 34.8523 18.9389 35.3409 17.0753 35.3409C15.848 35.3409 14.7855 35.142 13.8878 34.7443C13.0014 34.3352 12.2798 33.7841 11.723 33.0909C11.1776 32.3864 10.8026 31.5909 10.598 30.7045H10.3253L9.64347 35H0.302557ZM11.6889 21.9091C11.4844 23.1818 11.473 24.2841 11.6548 25.2159C11.8366 26.1364 12.1946 26.8523 12.7287 27.3636C13.2628 27.8636 13.9616 28.1136 14.8253 28.1136C15.6889 28.1136 16.4673 27.8693 17.1605 27.3807C17.8537 26.8807 18.4389 26.1705 18.9162 25.25C19.3935 24.3182 19.7344 23.2045 19.9389 21.9091C20.1435 20.6136 20.1605 19.5057 19.9901 18.5852C19.8196 17.6534 19.473 16.9432 18.9503 16.4545C18.4276 15.9545 17.7344 15.7045 16.8707 15.7045C16.0071 15.7045 15.223 15.9545 14.5185 16.4545C13.8139 16.9432 13.2173 17.6534 12.7287 18.5852C12.2401 19.5057 11.8935 20.6136 11.6889 21.9091ZM96.4943 8.81818L95.3352 15.6364H78.0852L79.2443 8.81818H96.4943ZM83.608 2.54545H93.017L89.0284 26.5795C88.9716 26.9432 88.983 27.25 89.0625 27.5C89.142 27.7386 89.3011 27.9205 89.5398 28.0455C89.7898 28.1591 90.1193 28.2159 90.5284 28.2159C90.8011 28.2159 91.1364 28.1818 91.5341 28.1136C91.9318 28.0341 92.233 27.9773 92.4375 27.9432L92.7102 34.5568C92.233 34.6932 91.5909 34.8466 90.7841 35.017C89.9886 35.1989 89.0625 35.3182 88.0057 35.375C85.8011 35.4773 84.0057 35.2443 82.6193 34.6761C81.2443 34.108 80.2898 33.2216 79.7557 32.017C79.233 30.8011 79.142 29.2841 79.483 27.4659L83.608 2.54545Z" fill="black"/>
<path d="M31.4446 35L35.8082 8.81818H44.7401L43.9219 13.7955H44.1946C45.0014 12.1591 46.1435 10.8636 47.6207 9.90909C49.098 8.95455 50.7514 8.47727 52.581 8.47727C54.4105 8.47727 55.9105 8.96591 57.081 9.94318C58.2514 10.9091 58.8423 12.1932 58.8537 13.7955H59.1264C59.831 12.1932 60.9844 10.9091 62.5866 9.94318C64.1889 8.96591 65.9673 8.47727 67.9219 8.47727C70.4105 8.47727 72.3026 9.28409 73.598 10.8977C74.9048 12.5114 75.331 14.6591 74.8764 17.3409L71.9446 35H62.5355L65.1264 19.7273C65.2855 18.5795 65.1264 17.6818 64.6491 17.0341C64.1719 16.375 63.4446 16.0455 62.4673 16.0455C61.5014 16.0455 60.6832 16.375 60.0128 17.0341C59.3537 17.6818 58.9446 18.5795 58.7855 19.7273L56.1946 35H47.1946L49.7855 19.7273C49.9446 18.5795 49.7855 17.6818 49.3082 17.0341C48.831 16.375 48.1037 16.0455 47.1264 16.0455C46.4901 16.0455 45.9105 16.1932 45.3878 16.4886C44.8764 16.7841 44.4503 17.2102 44.1094 17.767C43.7798 18.3125 43.5582 18.9659 43.4446 19.7273L40.8537 35H31.4446Z" fill="white"/>
</svg>
