<svg width="34" height="42" viewBox="0 0 34 42" fill="none" xmlns="http://www.w3.org/2000/svg">
<path d="M25.1817 0.00159377C30.1077 -0.0563623 34.3383 1.45043 33.0634 7.12986C32.7156 8.63665 31.7304 8.52074 31.7884 6.43442C31.9043 2.49359 22.9215 2.78335 15.7933 4.63786C15.0978 4.75377 14.5183 4.92763 13.8808 5.15944C14.1126 5.56512 14.3444 6.0867 14.4603 6.66623C14.6921 8.11506 12.7217 14.432 10.6934 21.2705C14.0547 20.575 17.3 20.575 18.6909 20.8648C22.5158 21.85 21.2988 24.8056 20.7193 22.7773C20.1398 22.1398 14.6921 22.2557 9.88201 23.9943C7.73774 31.3544 5.82527 38.6565 6.81048 40.569C7.44797 41.8439 3.15942 41.8439 2.57988 38.6565C2.29012 36.744 3.27532 32.2237 4.72416 27.0079C3.39123 28.2828 2.40602 29.9055 2.29012 31.9339C2.11626 33.7884 -0.781412 30.7748 0.203795 27.9931C1.13105 25.5011 3.33328 23.8204 5.99913 22.6614C6.57867 20.6909 7.1582 18.7205 7.73773 16.8081C6.63662 17.2717 5.24574 17.5615 4.02872 17.3297C1.24696 16.7501 0.899236 13.6786 1.01514 12.3457C1.24696 8.81051 6.23095 4.23219 13.649 1.91405C15.3876 1.33452 20.6034 0.00159377 25.1817 0.00159377ZM10.9252 6.26056C4.60825 8.98436 1.36286 12.9252 2.0583 14.0843C3.56509 16.6342 9.53429 11.2445 9.7661 10.3173C9.7661 10.2014 9.82406 10.0855 9.82406 10.0275C10.3456 8.52074 10.6934 7.18781 10.9252 6.26056Z" fill="black"/>
</svg>
