<svg width="18" height="22" viewBox="0 0 18 22" fill="none" xmlns="http://www.w3.org/2000/svg">
<path d="M2 11.1094C1.65625 10.9844 1.38542 10.7552 1.1875 10.4219C0.989583 10.0885 0.890625 9.72396 0.890625 9.32812C0.890625 9.26562 0.911458 9.04167 0.953125 8.65625C1.10938 6.46875 1.34375 4.35938 1.65625 2.32812C1.77083 1.57812 1.94792 1.11458 2.1875 0.9375C2.42708 0.75 2.91146 0.65625 3.64062 0.65625H15.6094C16.151 1.5625 16.4219 2.75 16.4219 4.21875C16.4219 5.6875 16.1094 6.85938 15.4844 7.73438C14.8385 7.33854 14.2188 7.04167 13.625 6.84375C12.6979 6.55208 11.7031 6.40625 10.6406 6.40625H8.89062L8.79688 7.10938H10.25C12.4062 7.10938 14.1562 7.66667 15.5 8.78125C16.9688 10.0104 17.7031 11.7396 17.7031 13.9688C17.7031 16.1979 16.8802 17.974 15.2344 19.2969C13.5885 20.6198 11.3333 21.2812 8.46875 21.2812C5.91667 21.2812 3.91667 20.7344 2.46875 19.6406C1.02083 18.5365 0.296875 17.151 0.296875 15.4844C0.296875 14.1615 0.734375 13.125 1.60938 12.375C2.49479 11.625 3.53125 11.25 4.71875 11.25C5.90625 11.25 6.90625 11.5885 7.71875 12.2656C8.63542 13.0469 9.125 14.0885 9.1875 15.3906C9.66667 15.3906 9.90625 15.1667 9.90625 14.7188C9.90625 13.6146 9.45312 12.6458 8.54688 11.8125C7.64062 10.9688 6.36979 10.5469 4.73438 10.5469C3.74479 10.5469 2.83333 10.7344 2 11.1094Z" fill="#FFEDCA"/>
</svg>
