<svg width="2871" height="3328" viewBox="0 0 2871 3328" fill="none" xmlns="http://www.w3.org/2000/svg">
<path d="M458.696 1465.27C363.977 1509.83 113.282 1710.43 64.9975 1769.86C14.853 1829.3 0.00114569 1736.44 51.9964 1582.28C92.8414 1457.84 196.85 1288.82 371.408 1143.96C473.538 1060.38 698.249 939.657 835.663 869.071C863.526 854.208 1223.79 701.912 1545.06 625.764C1572.92 618.332 1511.64 672.195 1502.35 701.912C1454.06 843.066 490.25 1448.55 490.25 1448.55L458.696 1465.27ZM1816.19 3168.41C1832.9 3268.71 1818.05 3276.14 1714.06 3289.14C1610.06 3302.15 1533.92 3263.14 1506.07 3237.14C1478.21 3211.13 1472.64 3153.56 1500.5 3101.56C1517.22 3068.12 1533.93 3056.98 1543.22 3016.12C1552.5 2977.12 1559.93 2967.83 1567.35 2952.97C1574.78 2939.96 1576.64 2926.96 1578.49 2835.96C1580.35 2744.95 1578.49 2574.07 1587.79 2501.65C1597.08 2427.36 1918.35 2535.07 1918.35 2535.07C1918.35 2535.07 1842.2 2724.52 1821.78 2770.95C1801.35 2817.39 1803.21 2906.53 1803.21 2925.11C1803.21 2943.68 1795.78 2980.82 1790.2 2982.68C1784.63 2984.53 1808.78 3032.82 1797.63 3060.69C1790.2 3086.7 1814.34 3153.56 1816.19 3168.41ZM1938.76 328.594C1927.61 258.017 1938.76 118.705 1953.61 96.429C2000.05 33.2747 2245.17 25.8523 2297.17 100.14C2319.46 133.568 2317.6 211.577 2313.89 261.728C2310.18 311.871 2297.17 419.596 2295.31 454.893C2293.46 480.899 2024.19 521.75 1964.76 451.173C1948.04 432.608 1938.76 328.594 1938.76 328.594ZM2484.73 2988.25C2598.01 3069.98 2685.29 3084.84 2742.86 3114.55C2800.42 3144.28 2785.57 3201.85 2689 3218.57C2611.01 3233.42 2488.44 3203.7 2406.74 3203.7C2325.03 3203.7 2143.03 3212.99 2094.75 3179.57C2039.04 3140.57 2063.17 3068.12 2063.17 3068.12C2078.03 3027.27 2115.17 2936.25 2104.03 2861.96C2092.89 2787.67 2078.03 2746.81 2050.17 2678.09C2022.32 2609.37 2001.9 2440.36 2027.9 2431.07C2053.9 2421.78 2046.46 2431.07 2079.89 2438.49C2113.32 2445.91 2150.46 2457.07 2222.89 2457.07C2295.31 2457.07 2375.16 2445.91 2403.03 2440.35C2430.88 2434.78 2453.16 2429.2 2443.87 2486.78C2434.59 2544.36 2406.74 2652.08 2404.88 2735.66C2403.02 2819.24 2403.03 2915.82 2408.6 2932.54C2414.16 2949.25 2455.02 2967.83 2484.73 2988.25Z" fill="#010101"/>
<path d="M2087.32 514.328C1883.05 690.779 1487.5 739.061 900.677 965.655C750.253 1023.23 349.134 1195.96 252.564 1376.12C577.546 1188.54 698.258 1446.7 724.251 1712.29C748.384 1961.17 872.815 2091.19 1192.23 2083.75C1520.93 2076.33 1621.21 2267.62 1712.2 2492.37C1888.62 1632.42 2170.89 1465.27 2352.87 1318.55C2739.15 1004.65 2263.74 451.174 2087.32 514.328Z" fill="#8AC640"/>
<path d="M2087.32 514.328C1597.07 685.199 1112.37 727.919 542.262 1078.95C406.699 1162.53 120.711 1351.97 64.9961 1714.15C272.977 1483.84 753.954 1194.11 1342.64 1010.23C1639.77 917.363 1857.05 856.078 2120.75 753.924C2102.18 635.047 2102.18 588.616 2087.32 514.328Z" fill="#8AC640"/>
<path d="M2713.14 1532.13C2713.14 1532.13 2677.86 1652.86 2607.29 1691.87C2607.29 1691.87 2555.3 1710.44 2451.31 1652.87C2421.6 1636.15 2399.31 1578.58 2401.16 1560C2403.02 1515.42 2430.88 1494.99 2430.88 1494.99C2430.88 1494.99 2460.6 1444.84 2495.87 1446.7C2531.17 1448.55 2590.59 1454.12 2609.16 1437.41C2625.87 1418.83 2716.86 1470.84 2713.14 1532.13ZM1955.47 363.883C1955.47 363.883 1948.05 458.615 1935.05 518.04C1933.19 529.192 1877.48 534.754 1836.62 551.477C1914.62 774.35 2384.45 772.49 2445.74 662.914C2416.03 642.488 2356.6 610.911 2328.75 599.768C2300.88 588.616 2302.74 590.477 2300.88 538.474C2299.03 486.463 2295.31 389.889 2291.59 363.883C2287.88 337.877 2000.04 337.877 1955.47 363.883Z" fill="#010101"/>
<path d="M1974.04 363.883C1974.04 363.883 1974.04 417.746 1968.47 469.748C1966.62 493.894 1964.76 508.748 1961.05 527.322C1959.19 538.474 2024.19 583.036 2042.76 681.479C2131.9 880.206 2338.04 781.772 2423.46 687.05C2393.74 666.616 2345.46 638.759 2289.75 616.473C2261.89 605.321 2274.89 581.185 2273.04 529.182C2271.18 477.18 2263.75 401.023 2260.04 373.166C2256.31 345.309 2018.62 337.877 1974.04 363.883Z" fill="#F0EFEF"/>
<path d="M1955.47 363.883C1955.47 363.883 1953.61 397.321 1948.05 436.32C1972.18 460.457 2003.75 493.894 2027.91 514.328C2044.62 529.192 2085.46 527.331 2122.62 527.331C2156.04 527.331 2185.75 531.043 2198.75 523.62C2228.48 508.757 2271.18 471.618 2295.32 443.752C2293.47 410.324 2291.61 378.746 2289.76 363.883C2287.88 337.877 2000.03 337.877 1955.47 363.883Z" fill="#010101"/>
<path d="M2124.47 505.036C2102.18 505.036 2076.17 503.185 2055.75 499.465C2046.46 497.614 2037.18 492.043 2029.75 488.322C2016.75 479.031 2003.75 467.897 1988.9 456.745C1959.18 434.46 1957.33 421.457 1957.33 415.894C1970.33 298.877 1953.61 200.444 1953.61 200.444C1953.61 200.444 1940.61 150.292 2011.18 137.289C2081.74 124.287 2124.46 122.436 2124.46 122.436C2124.46 122.436 2169.03 122.436 2237.74 137.289C2308.31 150.292 2295.3 200.444 2295.3 200.444C2295.3 200.444 2278.59 298.877 2291.59 415.894C2291.59 421.457 2289.74 434.46 2260.02 456.745C2234.02 475.319 2213.6 495.745 2193.17 499.465C2172.74 503.185 2146.74 505.036 2124.47 505.036Z" fill="#010101"/>
<path d="M2124.47 74.1445C2001.9 74.1445 1977.75 107.573 1942.47 144.721C1935.05 154.004 1940.61 209.727 1953.62 328.595H1970.33C1970.33 328.595 1959.18 295.157 1961.04 256.158C1962.9 217.158 1970.33 219.018 1964.75 209.727C1957.33 198.575 1942.47 180.001 1975.9 161.435C2009.33 142.861 2061.32 176.289 2124.47 178.15C2187.6 176.289 2241.46 142.861 2274.88 161.435C2308.3 180.001 2293.45 198.575 2286.03 209.727C2278.6 220.869 2287.88 217.149 2289.74 256.158C2291.59 295.157 2280.45 328.595 2280.45 328.595H2297.16C2308.3 209.727 2315.74 157.724 2310.16 148.432C2278.59 107.573 2247.03 75.9956 2124.47 74.1445ZM2713.14 1537.7C2713.14 1537.7 2677.86 1651 2609.15 1690C2594.29 1682.57 2596.15 1671.43 2583.15 1654.71C2579.43 1649.15 2566.43 1645.42 2560.87 1639.85C2555.3 1634.28 2557.16 1624.99 2547.87 1617.57C2540.44 1610.14 2534.87 1615.71 2527.44 1610.14C2520.02 1602.72 2518.15 1593.42 2512.58 1587.86C2508.86 1584.14 2494.01 1582.29 2490.3 1578.57C2481.01 1569.28 2399.31 1552.56 2403.02 1533.99C2410.44 1506.12 2425.31 1485.7 2425.31 1485.7C2425.31 1485.7 2460.59 1433.7 2495.86 1435.55C2531.15 1437.41 2564.58 1444.84 2583.15 1428.12C2603.58 1409.54 2718.72 1478.27 2713.14 1537.7Z" fill="#010101"/>
<path d="M2471.73 716.777C2471.73 716.777 2588.72 688.911 2668.58 765.068C2748.44 843.076 2742.86 939.65 2718.72 999.084C2739.15 1023.23 2776.29 1090.09 2748.44 1169.95C2871 1273.96 2817.14 1433.7 2707.58 1539.56C2707.58 1539.56 2681.58 1442.98 2577.59 1437.41C2581.3 1400.27 2481.02 1370.54 2527.44 1273.96C2456.88 1257.25 2458.74 1208.95 2447.6 1149.53C2438.31 1090.09 2471.73 716.777 2471.73 716.777Z" fill="#010101"/>
<path d="M2429.02 768.779C2429.02 768.779 2564.58 700.062 2644.44 778.07C2724.29 856.079 2701.99 941.509 2677.86 1000.94C2698.28 1025.08 2746.57 1093.81 2716.86 1175.53C2711.28 1194.1 2670.43 1194.1 2640.71 1242.39C2714.99 1199.66 2761.42 1210.81 2778.13 1264.67C2804.13 1348.25 2746.56 1448.54 2696.42 1504.26C2696.42 1502.4 2694.56 1500.54 2694.56 1498.69C2687.14 1526.56 2677.85 1580.41 2622.15 1639.85C2594.28 1669.56 2572 1665.85 2540.43 1658.42C2503.29 1649.13 2490.29 1632.4 2438.3 1604.56C2408.58 1587.84 2425.3 1567.41 2425.3 1550.69C2425.3 1546.98 2429.01 1541.4 2434.59 1533.98C2438.3 1524.69 2449.44 1509.84 2466.15 1493.12C2466.15 1493.12 2490.29 1459.69 2525.59 1461.54C2560.87 1463.4 2598 1455.98 2607.29 1446.69C2607.29 1381.68 2533.02 1379.82 2559.01 1268.39C2560.87 1262.82 2570.16 1253.52 2599.86 1249.81C2555.29 1240.52 2534.87 1238.66 2503.29 1208.95C2481.01 1188.53 2464.3 1162.52 2458.72 1129.09C2447.59 1071.52 2429.02 768.779 2429.02 768.779Z" fill="#F0EFEF"/>
<path d="M2037.18 651.771C2026.04 636.908 1968.47 562.62 1858.9 532.903C1827.33 523.611 1806.91 549.617 1775.34 568.191C1766.05 562.62 1725.2 544.046 1702.92 557.039C1680.63 570.033 1665.78 583.045 1643.49 592.328C1632.34 586.756 1602.64 586.756 1578.49 596.039C1554.35 603.47 1517.21 620.185 1481.92 668.476C1459.64 748.344 1875.61 688.901 1875.61 688.901L2037.18 651.771Z" fill="#010101"/>
<path d="M2040.9 651.771C1981.46 631.336 1990.76 562.62 1858.9 551.477C1832.9 549.617 1816.19 570.042 1797.62 583.045C1806.91 592.337 1816.19 607.191 1821.76 622.045C1805.05 603.48 1775.33 579.325 1745.61 573.753C1717.76 568.191 1699.19 588.617 1669.47 603.48C1675.04 609.042 1680.62 618.334 1688.04 629.485C1662.04 612.771 1643.47 607.2 1608.19 620.194C1584.05 627.616 1537.62 648.051 1502.34 698.202C1480.06 778.07 1877.46 688.91 1877.46 688.91L2040.9 651.771Z" fill="#8AC640"/>
<path d="M2390.02 681.487C2390.02 681.487 2390.02 661.053 2388.16 642.488C2388.16 638.777 2373.31 629.485 2373.31 625.774L2369.6 622.053C2369.6 622.053 2399.31 605.339 2421.6 614.631C2445.73 622.053 2458.73 653.631 2458.73 653.631C2501.45 638.777 2505.16 655.491 2525.59 677.776C2570.16 668.485 2575.72 685.199 2603.58 726.068C2603.58 726.068 2570.16 720.496 2505.16 731.63C2442.02 740.912 2390.02 679.627 2390.02 681.487Z" fill="#010101"/>
<path d="M2382.59 672.196C2382.59 672.196 2393.73 662.904 2390.01 661.044C2410.44 649.901 2438.3 636.907 2451.3 672.196C2494.01 657.333 2499.58 677.767 2520.01 700.062C2572 675.916 2575.71 705.624 2579.43 718.627C2562.72 718.627 2538.59 720.487 2505.15 724.198C2442.02 733.49 2380.73 670.335 2382.59 672.196Z" fill="#8AC640"/>
<path d="M1751.2 625.765C1751.2 625.765 1857.05 662.904 1946.19 657.333C2035.33 649.91 2187.6 642.479 2269.31 690.77C2269.31 690.77 2352.88 661.044 2430.88 681.478C2508.88 701.904 2651.87 835.635 2609.16 976.788C2605.44 986.08 2581.3 1000.93 2553.45 1010.23C2553.45 1010.23 2568.31 1073.37 2542.31 1125.37C2516.3 1175.52 2458.74 1272.11 2456.88 1405.83C2455.03 1428.11 2451.32 1474.55 2447.6 1496.83C2302.74 1491.27 2079.9 1437.4 1860.77 1441.12C1862.62 1416.98 1864.48 1402.12 1866.34 1377.97H1871.9C1860.76 1316.68 1857.05 1285.1 1845.9 1238.67C1775.33 1194.1 1701.05 1142.1 1637.92 1043.65C1576.63 945.211 1751.2 625.765 1751.2 625.765ZM2468.02 1628.71C2468.02 1628.71 2583.16 2041.04 2447.6 2213.77C2447.6 2213.77 2468.02 2293.63 2421.6 2379.07C2414.16 2416.21 2404.87 2449.65 2399.31 2486.78C2375.17 2640.94 2334.31 2705.95 2323.17 2952.97L2211.74 2951.11C2211.74 2951.11 2198.73 2772.81 2159.74 2678.09C2137.47 2624.24 2050.17 2551.79 2053.9 2479.36C2057.61 2423.64 2068.75 2377.21 2163.47 2302.91C2170.89 2195.19 2063.18 2093.03 2079.9 1691.86L2468.02 1628.71Z" fill="#010101"/>
<path d="M2434.6 1611.99C2464.31 1801.43 2533.02 2081.89 2408.59 2219.32C2415.94 2254.17 2416.56 2290.1 2410.45 2325.19C2406.73 2347.47 2399.3 2371.62 2390.02 2397.62C2371.45 2442.2 2364.02 2507.2 2358.45 2546.2C2334.31 2700.36 2334.31 2707.8 2323.17 2954.82L2211.74 2952.96C2211.74 2952.96 2198.74 2774.65 2159.74 2679.94C2137.47 2626.08 2091.03 2579.65 2087.32 2507.21C2083.61 2451.5 2122.61 2340.06 2215.47 2343.77C2209.89 2119.04 2105.9 2163.61 2078.04 1695.57L2434.6 1611.99ZM1751.2 625.765C1751.2 625.765 1792.05 638.768 1836.62 642.479C1881.19 646.19 1929.48 642.479 1972.18 640.619C2061.32 633.196 2187.6 623.905 2271.17 672.196C2271.17 672.196 2317.6 657.333 2367.74 661.044C2390.02 662.904 2412.31 681.478 2438.31 688.91C2520.02 709.335 2598.01 844.917 2562.72 967.506C2559.01 976.797 2533.01 967.506 2503.29 976.797C2508.86 1002.8 2512.59 1062.24 2482.86 1125.38C2451.3 1188.54 2410.45 1270.26 2417.87 1426.27C2222.88 1416.98 2135.6 1403.99 1942.46 1394.7C1925.75 1325.97 1914.6 1257.25 1912.75 1221.97C1938.75 1208.96 1953.59 1197.83 1974.03 1175.53C1918.33 1184.83 1896.04 1181.11 1862.6 1162.53C1829.18 1143.96 1769.75 1084.52 1740.04 1045.52C1736.33 1041.8 1715.91 1103.09 1669.48 1104.96C1652.76 1080.81 1723.33 1012.09 1710.33 986.089C1663.91 891.358 1751.2 625.765 1751.2 625.765Z" fill="#F0EFEF"/>
<path d="M2449.44 1457.83C2449.44 1457.83 2453.15 1524.7 2453.15 1541.41C2453.15 1559.99 2468.01 1615.7 2469.86 1641.71C2449.44 1676.99 2360.3 1756.86 2198.73 1786.58C2039.03 1820.01 1827.33 1569.28 1827.33 1569.28C1832.9 1545.13 1851.47 1474.55 1864.47 1437.41C1866.33 1433.7 1870.04 1424.4 1870.04 1420.69C1886.76 1396.55 2449.44 1457.83 2449.44 1457.83Z" fill="#010101"/>
<path d="M2622.47 1625.63C2622.47 1672.06 2629.89 1705.5 2635.47 1735.21C2644.75 1789.08 2659.6 1824.37 2659.6 1859.65C2659.6 1967.37 2518.47 1948.8 2399.6 1952.52C2239.9 1985.95 2104.34 1735.21 2104.34 1735.21C2115.48 1692.49 2122.91 1644.21 2139.62 1603.34C2141.47 1581.06 2145.19 1553.2 2147.04 1540.2C2373.6 1540.2 2533.31 1553.2 2626.17 1562.47C2629.89 1582.91 2626.18 1618.2 2622.47 1625.63Z" fill="#F0EFEF"/>
<path d="M2230.31 1703C2230.31 1703 2131.89 1483.84 1836.61 1548.85C1766.05 1747.58 1671.33 1976.03 1732.62 2223.05C1671.33 2306.63 1600.77 2353.07 1600.77 2507.22C1600.77 2661.38 1608.2 2687.38 1608.2 2687.38L1825.47 2698.53C1825.47 2698.53 1896.04 2607.53 1923.89 2509.09C1931.32 2481.22 1938.75 2431.08 1933.18 2373.51C1940.6 2362.36 1972.17 2336.37 1975.89 2286.22C1975.89 2286.22 2081.74 2230.5 2143.03 2094.92C2200.61 1972.31 2185.74 1866.45 2230.31 1703Z" fill="#010101"/>
<path d="M2230.31 1703C2224.75 1682.57 2150.46 1481.99 1875.61 1541.41C1714.06 1972.31 1773.48 2150.61 1797.62 2228.61C1688.05 2367.91 1637.91 2397.62 1660.2 2679.94H1805.06C1871.9 2574.08 1886.76 2535.07 1890.47 2395.77C1890.47 2390.2 1870.05 2406.92 1855.19 2425.49C1866.34 2367.92 1897.9 2356.77 1922.05 2321.49C1933.19 2306.62 1942.47 2284.34 1942.47 2254.62C2072.46 2167.33 2120.75 2057.74 2148.6 1944.45C2170.89 1866.45 2196.88 1738.29 2230.31 1703Z" fill="#F0EFEF"/>
<path d="M1771.62 1403.98C1771.62 1403.98 1821.77 1405.83 1866.34 1420.69C1909.06 1435.55 1909.06 1444.83 1925.77 1463.41C1942.48 1482 1983.33 1509.84 1975.91 1537.7C1972.19 1552.56 1962.91 1556.27 1949.91 1569.28C1944.34 1574.85 1903.48 1619.42 1894.19 1624.99C1888.62 1628.7 1881.19 1634.28 1875.62 1637.99L1847.77 1656.57C1829.2 1665.86 1816.2 1671.43 1795.77 1669.57C1795.77 1669.57 1749.35 1667.71 1719.63 1636.14C1719.63 1636.14 1715.92 1621.28 1723.35 1613.86C1723.35 1613.86 1684.34 1580.42 1673.2 1558.14C1662.05 1535.86 1662.05 1504.28 1669.49 1487.57C1673.2 1470.84 1745.62 1424.4 1771.62 1403.98ZM1818.06 3211.14L1812.49 3257.58C1812.49 3257.58 1795.77 3278 1671.35 3276.15C1545.07 3274.29 1511.65 3235.29 1500.51 3214.86L1493.08 3166.56C1493.08 3166.56 1517.23 3131.28 1522.8 3131.28C1563.65 3134.99 1702.93 3190.71 1799.5 3205.56C1808.77 3205.56 1810.62 3209.28 1818.06 3211.14ZM2087.32 3116.41C2087.32 3136.84 2085.46 3136.84 2085.46 3157.27C2107.75 3173.99 2163.47 3183.28 2269.31 3181.41C2423.45 3177.7 2566.44 3227.85 2741 3198.12L2742.86 3164.7L2726.15 3162.84L2107.75 3112.69L2087.32 3116.41Z" fill="#010101"/>
<path d="M2222.89 3181.42H2269.31C2369.6 3177.71 2464.31 3199.99 2566.44 3205.56C2620.3 3203.7 2687.15 3190.7 2681.58 3151.7L2154.18 3107.12C2122.61 3142.41 2146.74 3172.13 2222.89 3181.42ZM1617.49 2399.49C1634.2 2410.64 1747.48 2477.5 1931.33 2468.21C1927.61 2503.5 1929.47 2572.22 1847.76 2692.94C1806.91 2752.38 1771.61 2856.39 1764.19 2988.26C1766.05 3017.98 1782.76 3043.98 1760.48 3082.98C1767.9 3107.12 1797.62 3155.41 1812.48 3185.13C1827.33 3214.86 1834.76 3248.28 1736.33 3250.14C1636.05 3252 1474.48 3240.85 1496.78 3162.85C1507.93 3121.99 1539.49 3079.27 1543.21 3062.55C1546.92 3045.84 1546.92 2995.69 1578.48 2962.26C1606.35 2869.39 1597.06 2780.24 1591.49 2696.66C1582.2 2609.36 1580.34 2470.07 1617.49 2399.49ZM1790.19 885.786C1922.05 709.335 1810.62 568.191 1598.93 610.901C1513.5 627.615 1428.08 687.059 1422.5 794.775C1394.65 798.486 1331.51 802.197 1299.94 917.354C1275.8 1006.51 1262.8 1023.22 1220.08 1067.79C1192.23 1099.37 1221.94 1164.37 1242.36 1210.81C1311.08 1370.54 1522.78 1385.39 1665.77 1506.12C1714.06 1493.12 1764.19 1439.27 1779.05 1403.98C1658.34 1260.96 1684.34 1205.24 1636.05 1130.95C1688.05 1112.37 1806.91 1039.94 1790.19 885.786Z" fill="#010101"/>
<path d="M1764.19 874.643C1771.61 863.491 1784.61 839.355 1790.19 830.063C1792.05 828.203 1812.48 863.491 1814.34 861.64C1864.47 779.912 1877.47 661.044 1819.9 649.901C1806.9 648.041 1782.76 642.479 1762.33 635.038C1725.2 622.035 1691.77 622.035 1632.34 633.187C1550.63 648.041 1468.92 707.475 1468.92 792.915C1468.92 798.486 1526.48 815.2 1543.2 883.926C1515.34 844.917 1467.05 802.197 1409.49 839.346C1348.2 878.345 1379.78 967.496 1298.07 1060.36C1270.21 1091.94 1273.93 1129.08 1303.63 1203.37C1351.91 1320.39 1580.34 1383.53 1704.76 1494.97C1734.47 1481.97 1754.89 1452.25 1769.75 1429.97C1686.19 1342.67 1652.75 1260.95 1628.62 1201.51C1598.91 1132.8 1565.47 1093.8 1500.48 1041.78C1533.91 1054.78 1559.91 1067.78 1574.76 1078.92C1591.47 1090.07 1615.61 1091.93 1637.9 1084.5C1717.77 1056.66 1760.48 945.211 1764.19 874.643Z" fill="#F0EFEF"/>
<path d="M2572.01 904.361C2566.44 974.937 2514.45 939.649 2486.59 926.646C2430.88 902.5 2375.16 885.786 2310.17 885.786C2245.17 885.786 2161.6 891.358 2089.18 909.932C1988.9 937.789 1959.18 935.938 1914.62 913.643C1870.05 889.498 1792.06 830.063 1792.06 830.063C1792.06 830.063 1790.2 848.638 1808.78 872.783C1832.91 902.5 1886.77 939.649 1959.19 963.785C1994.47 974.937 2022.34 967.497 2053.91 960.074C2219.19 919.215 2393.74 911.783 2540.45 1000.93C2547.88 1004.65 2573.88 993.503 2585.02 976.788C2599.86 952.652 2572.01 904.361 2572.01 904.361Z" fill="#010101"/>
<path d="M1727.06 1611.99C1741.91 1621.28 1760.48 1626.85 1780.9 1643.57C1780.9 1643.57 1764.19 1643.57 1756.77 1636.14C1747.48 1630.57 1728.91 1613.86 1727.06 1611.99Z" fill="#0A1825"/>
<path d="M2263.74 139.15C2258.17 122.436 2217.31 92.71 2122.61 92.71C2020.47 92.71 1990.75 124.287 1988.9 141.001C1988.9 146.573 1981.47 206.016 1979.61 230.152C1979.61 230.152 1979.61 259.869 1981.46 304.44C1983.32 334.157 1990.75 350.871 1994.47 389.88C1998.18 430.731 2009.33 456.737 2029.75 490.174C2039.04 495.736 2046.46 501.317 2055.75 503.177C2092.89 510.599 2157.89 512.459 2193.17 503.177C2213.6 497.605 2239.6 462.317 2245.17 430.74C2252.59 391.74 2260.02 363.874 2261.88 339.738C2265.59 315.601 2267.45 261.729 2269.3 246.866C2274.88 206.016 2265.59 142.861 2263.74 139.15Z" fill="#F0EFEF"/>
<path d="M2068.75 2434.78C2068.75 2434.78 2167.18 2477.5 2410.45 2440.35C2410.45 2440.35 2341.75 2785.81 2373.32 2958.54C2373.32 2958.54 2404.88 3003.12 2638.88 3088.55C2638.88 3088.55 2742.87 3114.55 2739.16 3166.56C2739.16 3166.56 2742.87 3177.71 2616.59 3173.99C2490.32 3170.27 2371.46 3147.98 2287.89 3147.98C2204.32 3147.98 2115.18 3151.69 2100.33 3127.56C2083.62 3105.27 2104.04 3047.69 2128.19 3014.25C2154.2 2978.97 2146.76 2952.96 2144.91 2889.82C2139.32 2724.52 2013.04 2553.65 2068.75 2434.78Z" fill="#010101"/>
<path d="M2048.32 2466.36C2035.32 2484.93 2050.17 2555.5 2068.74 2624.23C2087.31 2692.94 2128.18 2733.81 2137.46 2847.1C2146.74 2958.54 2148.6 2973.4 2117.03 3038.4C2085.45 3103.39 2076.17 3162.84 2185.73 3164.7C2295.29 3166.56 2354.73 3162.84 2466.15 3179.56C2577.58 3196.27 2616.58 3201.84 2677.86 3192.56C2739.15 3183.28 2752.14 3162.84 2726.15 3144.27C2700.14 3125.7 2592.43 3105.27 2546.01 3068.11C2501.43 3034.68 2375.16 2978.96 2373.31 2964.11C2367.74 2913.96 2365.88 2731.94 2375.16 2672.51C2384.45 2613.07 2397.44 2527.64 2401.16 2505.35C2404.88 2483.06 2423.45 2460.77 2391.87 2468.2C2360.31 2475.62 2241.46 2492.35 2152.32 2486.78C2063.18 2481.21 2053.9 2460.78 2048.32 2466.36Z" fill="#8AC640"/>
<path opacity="0.3" d="M2111.47 3040.26C2143.03 3055.12 2189.46 3066.27 2224.75 3066.27C2224.75 3066.27 2211.74 3127.56 2232.17 3164.7C2252.59 3201.85 2083.6 3179.57 2083.6 3179.57L2076.18 3047.7L2111.47 3040.26ZM2603.58 3199.99C2633.3 3190.7 2653.73 3157.27 2629.59 3125.7C2603.58 3094.13 2581.3 3088.56 2614.73 3086.71C2648.16 3084.84 2770.72 3159.13 2770.72 3159.13L2707.57 3216.71L2603.58 3199.99ZM2042.75 2538.79C2085.46 2553.65 2150.46 2557.36 2206.18 2555.5C2261.88 2553.65 2345.45 2546.21 2399.31 2527.64C2453.16 2509.07 2430.88 2548.07 2430.88 2548.07L2401.16 2575.94C2401.16 2575.94 2330.6 2603.79 2215.47 2601.94C2079.9 2600.08 2039.04 2585.23 2039.04 2585.23L2042.75 2538.79ZM2046.46 2631.66C2089.18 2646.52 2154.17 2650.23 2209.89 2648.37C2265.59 2646.52 2339.88 2646.52 2393.73 2626.09C2416.02 2618.66 2403.02 2650.23 2403.02 2650.23L2393.73 2666.95C2393.73 2666.95 2321.31 2692.95 2208.03 2691.08C2072.46 2689.23 2048.32 2678.08 2048.32 2678.08L2046.46 2631.66Z" fill="#010101"/>
<path d="M1923.9 1329.69C1923.9 1342.69 2068.75 1415.12 2148.6 1429.98C2228.46 1444.84 2395.59 1429.98 2421.59 1424.41L2417.87 1450.42C2417.87 1450.42 2219.17 1480.14 2066.89 1439.28C1914.61 1398.42 1931.33 1389.12 1931.33 1389.12L1923.9 1329.69Z" fill="#010101"/>
<path d="M1613.77 2913.97C1636.05 2925.12 1715.91 2945.54 1767.9 2934.4C1775.33 2932.54 1767.9 2806.24 1788.34 2748.67C1818.05 2668.8 1866.33 2603.79 1888.61 2462.65C1810.61 2455.22 1721.48 2434.78 1675.05 2419.92C1615.63 2601.94 1636.06 2757.95 1613.77 2913.97ZM1738.2 3030.98C1751.2 3034.69 1760.48 3049.55 1764.2 3040.27C1771.62 3023.55 1751.2 2991.98 1749.34 2969.7V2967.84C1732.63 2952.98 1619.35 2951.12 1626.78 2958.55C1613.78 2982.69 1593.36 2978.98 1585.93 3027.27C1582.22 3051.41 1611.94 3030.98 1639.78 3029.12C1589.65 3062.55 1532.08 3105.28 1522.79 3142.42C1511.65 3194.42 1530.22 3209.28 1585.93 3237.15C1634.22 3248.29 1691.78 3250.15 1736.35 3248.29C1786.49 3239 1795.78 3214.86 1780.92 3181.43C1758.62 3131.28 1743.77 3066.27 1738.2 3030.98Z" fill="#F0EFEF"/>
<path d="M1758.62 618.333C1819.91 653.621 1905.34 644.339 1936.9 642.479C1944.33 642.479 2018.62 629.476 2022.33 631.327C2029.75 633.187 2029.75 638.758 2029.75 638.758C2029.75 638.758 2001.9 653.612 1938.76 657.323C1879.33 661.035 1808.77 657.323 1769.77 638.758C1723.34 618.333 1758.62 618.333 1758.62 618.333ZM2390.02 653.621C2401.16 661.044 2473.59 688.91 2505.16 722.338C2533.02 752.064 2518.17 750.204 2512.59 742.772C2505.16 733.481 2447.59 694.481 2425.31 685.199C2403.02 675.916 2375.16 659.193 2375.16 655.482C2375.16 651.77 2390.02 653.621 2390.02 653.621Z" fill="#010101"/>
<path d="M1749.33 1424.4C1803.19 1420.69 1858.9 1433.7 1894.19 1470.84C1912.76 1489.41 1942.47 1509.83 1938.76 1528.41C1938.76 1533.98 1927.61 1548.84 1918.34 1559.99C1912.77 1567.41 1896.05 1584.12 1890.47 1589.7C1883.05 1595.27 1857.05 1615.71 1851.48 1619.42C1845.91 1623.14 1838.48 1632.43 1832.91 1634.28C1814.35 1643.58 1793.92 1636.14 1775.34 1626.86C1756.78 1617.57 1779.06 1615.71 1758.63 1600.86C1708.5 1565.57 1680.63 1541.41 1701.07 1472.7C1702.92 1459.69 1723.34 1444.83 1749.33 1424.4Z" fill="#F0EFEF"/>
<path opacity="0.4" d="M1275.79 999.083C1108.66 1065.95 683.388 1277.69 562.686 1342.69C662.965 1405.84 709.39 1558.14 724.251 1712.29C726.102 1727.15 727.962 1740.16 729.822 1755.01C731.673 1768.01 733.532 1777.3 735.383 1782.88C735.383 1784.74 735.383 1788.45 737.243 1790.3C846.813 1491.28 1238.64 1175.53 1253.5 1151.39C1260.92 1140.25 1244.21 1091.95 1270.22 1045.53C1303.65 986.08 1368.65 960.074 1275.79 999.083ZM1673.2 2401.35C1758.62 2230.48 1760.48 2067.04 1758.62 1875.73C1758.62 1795.86 1816.19 1682.57 1786.48 1714.14C1675.05 1838.57 1394.65 2072.61 1192.23 2085.6C1476.35 2076.32 1587.78 2219.33 1673.2 2401.35Z" fill="#010101"/>
<path d="M399.26 1500.55C505.11 1424.4 1052.94 1132.81 1184.8 1091.95C1316.64 1049.23 1275.79 999.074 1275.79 999.074C1275.79 999.074 740.953 1229.38 421.542 1428.12" fill="#010101"/>
<path opacity="0.4" d="M1959.18 963.795C1916.47 947.081 1883.05 997.232 1894.19 1045.52C1905.34 1093.81 2005.62 1147.67 2000.04 1324.12C1996.33 1468.99 1964.75 1528.42 1964.75 1528.42L1894.19 1439.28C1894.19 1439.28 1883.05 1238.68 1858.9 1208.96C1834.77 1179.25 1758.62 1125.38 1728.91 1097.53C1699.2 1069.66 1762.33 1032.52 1758.62 980.509C1754.91 930.367 1790.2 830.073 1790.2 830.073L1959.18 963.795ZM2217.32 1755C2213.61 1894.3 2245.18 2100.46 2258.17 2198.91C2271.17 2297.34 2287.88 2304.77 2258.17 2349.35C2228.46 2392.07 2189.46 2462.65 2189.46 2462.65L2061.32 2451.5C2061.32 2451.5 2163.46 2321.49 2169.02 2297.34C2174.59 2273.2 2117.03 2089.33 2117.03 2089.33L2217.32 1755ZM1970.33 454.894C1996.34 512.459 2027.9 538.465 2078.03 555.188C2107.75 566.331 2224.74 581.194 2271.17 529.182C2291.6 505.037 2278.59 440.031 2278.59 440.031L2172.74 525.462L2029.75 499.465L2013.04 456.745L1970.33 454.894Z" fill="#010101"/>
<path d="M1981.46 583.045C2029.75 614.622 2150.46 644.339 2183.88 649.91C2217.31 657.333 2271.16 614.622 2297.16 603.479C2325.03 590.476 2373.31 583.045 2429.02 633.196C2434.59 638.768 2416.02 662.913 2416.02 662.913C2414.16 661.053 2403.01 661.053 2388.15 653.622C2373.3 646.199 2360.3 640.619 2338.02 642.479C2245.16 653.622 2230.31 685.199 2148.6 666.615C2066.89 648.032 2046.46 633.187 1966.61 636.898" fill="#8AC640"/>
<path d="M1981.46 583.045C2029.75 614.622 2150.46 644.339 2183.88 649.91C2217.31 657.333 2271.16 614.622 2297.16 603.479C2325.03 590.476 2373.31 583.045 2429.02 633.196C2434.59 638.768 2416.02 662.913 2416.02 662.913C2414.16 661.053 2403.01 661.053 2388.15 653.622C2373.3 646.199 2360.3 640.619 2338.02 642.479C2245.16 653.622 2230.31 685.199 2148.6 666.615C2066.89 648.032 2046.46 633.187 1966.61 636.898" stroke="#010101" stroke-width="10.8638" stroke-miterlimit="10" stroke-linejoin="round"/>
<path d="M1964.75 588.616C2026.04 614.622 2144.89 642.479 2178.31 649.91C2211.74 657.342 2265.59 623.905 2291.59 607.191C2338.03 577.473 2397.45 601.619 2425.31 633.196C2443.87 653.622 2451.31 666.625 2451.31 672.196C2451.31 679.618 2429.03 672.196 2429.03 672.196C2416.03 666.625 2401.17 664.773 2390.03 657.333C2375.17 649.91 2360.31 638.768 2338.04 640.619C2245.18 651.771 2226.61 683.339 2146.76 664.764C2066.91 646.19 2046.48 629.476 1961.06 635.038" fill="#8AC640"/>
<path d="M1676.91 2323.34C1673.2 2319.63 1680.62 2315.91 1676.91 2315.91C1652.78 2315.91 1619.35 2297.34 1600.77 2271.33C1520.92 2156.19 1403.92 2080.04 1192.22 2085.61C874.656 2093.03 748.374 1963.03 724.241 1714.15C711.24 1578.57 674.096 1446.7 597.959 1372.4L553.385 1400.27C638.804 1474.56 666.666 1595.28 685.237 1760.58C714.95 2009.46 915.51 2124.62 1149.5 2128.33C1392.78 2132.04 1480.05 2182.19 1571.04 2304.78C1600.76 2343.78 1634.19 2356.78 1660.18 2362.35L1676.91 2323.34Z" fill="#010101"/>
<path opacity="0.4" d="M2538.59 1129.09C2544.16 1156.95 2559.01 1210.81 2588.72 1236.81C2601.73 1249.81 2603.59 1253.52 2592.44 1253.52C2581.29 1253.52 2499.59 1249.81 2499.59 1249.81L2477.3 1210.81L2538.59 1129.09Z" fill="#010101"/>
</svg>
