<svg width="3315" height="3316" viewBox="0 0 3315 3316" fill="none" xmlns="http://www.w3.org/2000/svg">
<path d="M1654.93 1933.3C1808.03 1933.3 1932.15 1809.18 1932.15 1656.08C1932.15 1502.98 1808.03 1378.87 1654.93 1378.87C1501.83 1378.87 1377.72 1502.98 1377.72 1656.08C1377.72 1809.18 1501.83 1933.3 1654.93 1933.3Z" fill="#00D8FF"/>
<path d="M1654.94 1092.5C2027.06 1092.5 2372.79 1145.91 2633.42 1235.59C2947.46 1343.69 3140.57 1507.58 3140.57 1655.99C3140.57 1810.63 2935.92 1984.78 2598.7 2096.45C2343.75 2180.92 2008.18 2225.07 1654.94 2225.07C1292.71 2225.07 949.813 2183.67 691.931 2095.54C365.708 1984.05 169.204 1807.7 169.204 1655.99C169.204 1508.78 353.615 1346.17 663.257 1238.25C924.895 1147.1 1279.15 1092.5 1654.94 1092.5Z" stroke="#00D8FF" stroke-width="144.746" stroke-miterlimit="10"/>
<path d="M1164.36 1375.94C1350.24 1053.57 1569.28 780.751 1777.23 599.821C2027.79 381.789 2266.25 296.409 2394.78 370.521C2528.71 447.749 2577.36 712.043 2505.63 1060.07C2451.39 1323.17 2322.04 1635.84 2145.51 1941.91C1964.58 2255.67 1757.35 2532.06 1552.24 2711.43C1292.71 2938.35 1041.7 3020.43 910.329 2944.67C782.807 2871.11 734.071 2630.17 795.175 2307.98C846.843 2035.53 976.563 1701.43 1164.36 1375.94Z" stroke="#00D8FF" stroke-width="144.746" stroke-miterlimit="10"/>
<path d="M1164.82 1942.55C978.395 1620.45 851.423 1294.5 798.473 1023.98C734.712 698.027 779.784 448.756 908.222 374.461C1042.06 296.959 1295.27 386.828 1560.94 622.724C1761.84 801.088 1968.06 1069.32 2145.05 1375.12C2326.53 1688.61 2462.57 2006.13 2515.43 2273.35C2582.39 2611.58 2528.16 2870.01 2396.88 2945.95C2269.45 3019.7 2036.4 2941.65 1787.77 2727.74C1577.8 2546.99 1353.08 2267.76 1164.82 1942.55Z" stroke="#00D8FF" stroke-width="144.746" stroke-miterlimit="10"/>
</svg>
