<svg width="1458" height="1382" viewBox="0 0 1458 1382" fill="none" xmlns="http://www.w3.org/2000/svg">
<path d="M1205 146C1260.23 146 1305 190.772 1305 246V1282L1304.99 1283.29C1304.3 1337.93 1259.8 1382 1205 1382H100L98.707 1381.99C44.5048 1381.31 0.694627 1337.5 0.0078125 1283.29L0 1282V246C2.55723e-06 191.203 44.0744 146.7 98.707 146.008L100 146H1205ZM100 1282H1205V246H100V1282Z" fill="#19F9D8"/>
<path d="M230 50C230 22.3858 252.386 0 280 0H1382C1409.61 0 1432 22.3858 1432 50V100H230V50Z" fill="#19F9D8"/>
<path d="M1408 0C1435.61 0 1458 22.3858 1458 50V1152C1458 1179.61 1435.61 1202 1408 1202H1358V0L1408 0Z" fill="#19F9D8"/>
</svg>
